<svg width="118" height="108" viewBox="0 0 118 108" fill="none" xmlns="http://www.w3.org/2000/svg">
<path d="M59 2.5H65L75 4L82.5 8.5L63 42.5L61.8954 42.2238C63.265 42.9621 64.6325 43.8691 65.5 44.5L67.5 50.5L65 56.5L61.5 58.5H57L51 53.5V47.1667L50 48.5H10.5L13 34L17.5 24L52.8489 44.4127C53.2114 44.1142 53.592 43.8081 53.9778 43.5074L52.5 44L18 24L25.5 14L36.5 6L36.9627 6.82375L47 3L59 1V2.5Z" fill="#FBFBFB"/>
<path d="M82.9999 7.5L63.4999 42.5L65.4999 45L101 25L93.4999 15.5L82.9999 7.5Z" fill="#FFC262"/>
<path d="M101.637 23.75L67.25 44.3109L67.732 47.476L108.476 47.9054L106.731 35.9282L101.637 23.75Z" fill="#FFAC8B"/>
<path d="M107.01 47.6196L66.9492 48.2321L65.7841 51.2141L100.855 71.958L105.332 60.7128L107.01 47.6196Z" fill="#CD6264"/>
<path d="M102.256 71.8851L67.2559 52.3851L64.7559 54.3851L84.7559 89.8851L94.2559 82.3851L102.256 71.8851Z" fill="#7E7B8C"/>
<path d="M85 91L65 56.5L59 59L59 98L73.1823 96.4051L85 91Z" fill="#B5E6D3"/>
<path d="M59 99L59 58.5L54.5 57.5L34.9417 92.6804L47.0644 97.5407L59 99Z" fill="#5DD87F"/>
<path d="M34.5 91.5L54.5 57L52 53.5L16.5013 72.6937L24.6376 82.8782L34.5 91.5Z" fill="#02B0AC"/>
<path d="M15.8258 74.021L51 53.5L51 48.998L10.2556 48.998L11.5 60.5L15.8258 74.021Z" fill="#2FE1F6"/>
<circle cx="59" cy="50" r="48.5" stroke="black" stroke-width="3"/>
<circle cx="58.9999" cy="50" r="8.5" stroke="black" stroke-width="3"/>
<line x1="58.9999" y1="41" x2="58.9999" y2="1" stroke="black" stroke-width="2"/>
<line x1="58.9999" y1="98" x2="58.9999" y2="58" stroke="black" stroke-width="2"/>
<line x1="63.3839" y1="41.6388" x2="83.3839" y2="6.99777" stroke="black" stroke-width="2"/>
<line x1="34.8839" y1="91.0022" x2="54.8839" y2="56.3612" stroke="black" stroke-width="2"/>
<line x1="63.3839" y1="41.6388" x2="83.3839" y2="6.99777" stroke="black" stroke-width="2"/>
<line x1="34.8839" y1="91.0022" x2="54.8839" y2="56.3612" stroke="black" stroke-width="2"/>
<line x1="66.8612" y1="44.384" x2="101.502" y2="24.384" stroke="black" stroke-width="2"/>
<line x1="17.4977" y1="72.884" x2="52.1387" y2="52.884" stroke="black" stroke-width="2"/>
<line x1="68.5" y1="48.5" x2="108.5" y2="48.5" stroke="black" stroke-width="2"/>
<line x1="11.5" y1="48.5" x2="51.5" y2="48.5" stroke="black" stroke-width="2"/>
<line x1="67.8612" y1="52.884" x2="102.502" y2="72.884" stroke="black" stroke-width="2"/>
<line x1="18.4977" y1="24.384" x2="53.1387" y2="44.384" stroke="black" stroke-width="2"/>
<line x1="65.116" y1="56.3612" x2="85.116" y2="91.0022" stroke="black" stroke-width="2"/>
<line x1="36.616" y1="6.99777" x2="56.616" y2="41.6388" stroke="black" stroke-width="2"/>
</svg>
